<svg xmlns="http://www.w3.org/2000/svg" viewBox="0 0 361.11 232"><defs><style>.cls-1{fill:#3facb2;}.cls-2{fill:#fff;}.cls-3{fill:#efe811;}</style></defs><title>logosvg</title><g id="Layer_2" data-name="Layer 2"><g id="Layer_1-2" data-name="Layer 1"><ellipse class="cls-1" cx="252.78" cy="116" rx="107.71" ry="115.33"/><path d="M252.78,1.33c59,0,107.09,51.44,107.09,114.67s-48,114.67-107.09,114.67S145.69,179.23,145.69,116,193.73,1.33,252.78,1.33m0-1.33C193,0,144.45,51.93,144.45,116S193,232,252.78,232s108.33-51.93,108.33-116S312.61,0,252.78,0Z"/><ellipse class="cls-1" cx="229.12" cy="116" rx="91.52" ry="98"/><path class="cls-2" d="M229.12,21.33c48.75,0,88.41,42.47,88.41,94.67s-39.66,94.67-88.41,94.67S140.71,168.2,140.71,116s39.66-94.67,88.41-94.67m0-6.66C176.86,14.67,134.49,60,134.49,116s42.37,101.33,94.63,101.33S323.76,172,323.76,116,281.39,14.67,229.12,14.67Z"/><ellipse class="cls-1" cx="214.18" cy="116" rx="75.33" ry="80.67"/><path class="cls-2" d="M214.18,38.67C254,38.67,286.4,73.36,286.4,116s-32.4,77.33-72.22,77.33S142,158.64,142,116s32.4-77.33,72.22-77.33m0-6.67c-43.33,0-78.45,37.61-78.45,84s35.12,84,78.45,84,78.45-37.61,78.45-84S257.5,32,214.18,32Z"/><path d="M53.07,7.43V34.79H51.82q-2.07-15.7-6.55-21.58Q41.6,8.31,34.43,8.3a4.82,4.82,0,0,0-2,.19c-.24.19-.35,1-.35,2.51V63a10.81,10.81,0,0,0,.35,3.57,2.39,2.39,0,0,0,1.26.81,17.51,17.51,0,0,0,4.12.73q3,.28,8.25.28v1h-39v-1q5.12,0,8.16-.28a17.62,17.62,0,0,0,4.13-.73,2.47,2.47,0,0,0,1.38-1.06A9.89,9.89,0,0,0,21.07,63V11.09q0-2.5-.54-2.7a10.11,10.11,0,0,0-1.88-.09q-7,0-10.67,4.82-4.49,6-6.72,21.48H0V7.43Z"/><path d="M72,45.43v19.3a7.26,7.26,0,0,0,.27,2.51,1.94,1.94,0,0,0,.85.58,9.89,9.89,0,0,0,2.42.48,28.26,28.26,0,0,0,3.09.19v.86H54.69v-.86c1.73,0,3.3-.06,4.7-.19A14,14,0,0,0,63,67.53c.36-.32.54-1.26.54-2.8V14.28c0-.84,0-1.55,0-2.13a2.43,2.43,0,0,0-.41-1.35A2.64,2.64,0,0,0,62,9.65a31.53,31.53,0,0,0-7.17-.49V8.3L72,6.67v34a20.14,20.14,0,0,1,2.6-7.39q2.59-4.41,6.19-4.8a12.69,12.69,0,0,0,1.56-.1c.57-.06,1-.09,1.22-.09q6.27,0,9.41,3.65a11,11,0,0,1,2.51,7.32v25.5a7.19,7.19,0,0,0,.27,2.5,1.92,1.92,0,0,0,.89.58,11.24,11.24,0,0,0,2.6.48,36.61,36.61,0,0,0,3.77.19v.86H79.88v-.86a32.74,32.74,0,0,0,3.32-.19,12.38,12.38,0,0,0,3.31-.77c.36-.32.54-1.26.54-2.8V38.68a17.64,17.64,0,0,0-.81-6.17,4.68,4.68,0,0,0-4.75-3.19q-3.76,0-6.45,5.31A33.11,33.11,0,0,0,72,45.43Z"/><path d="M114.31,49.58q0,10.32,2.28,15c1.53,3.09,3.84,4.63,7,4.63a12.27,12.27,0,0,0,8.7-3.57q4.57-4.35,4.57-11.79h.72a16.61,16.61,0,0,1-4.31,11.81q-4.31,4.61-11.47,4.61-6,0-10.94-4.9Q105,59.56,105,50.25q0-10.08,5.74-16.42,5-5.46,11.3-5.47A13.54,13.54,0,0,1,131.7,32q5.64,5.39,5.65,17.57Zm15.42-1.15q0-9.32-1.55-14.21c-1-3.26-2.71-4.9-5-4.9A7,7,0,0,0,116.3,34q-2,4.65-2,14.45Z"/><path d="M23.13,117.19v25.72a12.22,12.22,0,0,0,.27,3.37c.18.45.74.85,1.7,1.2a11.39,11.39,0,0,0,3.31.63q1.88.09,6.7.09,10.2,0,15.43-6.5t6.57-20.86h1.16v28.51H0v-1q8,0,10.58-1.06a2.23,2.23,0,0,0,1.21-1A10,10,0,0,0,12.1,143V93.69a9.72,9.72,0,0,0-.36-3.47,2.15,2.15,0,0,0-1.16-.77,21.35,21.35,0,0,0-4-.77A53.57,53.57,0,0,0,0,88.3v-.87H55.32v24H54.15a30.43,30.43,0,0,0-3.49-14.17q-4.65-9-13.14-9c-2.26,0-4.54,0-6.84,0a20.73,20.73,0,0,0-6.12.91,2.3,2.3,0,0,0-1.12,1,10.6,10.6,0,0,0-.31,3.43v22.52q9.27,0,11.5-2,3.39-3.07,4.73-16.51h1.07v37.82H39.36Q38,122.38,34.72,119.31,32.4,117.2,23.13,117.19Z"/><path d="M88.75,115.66a6.61,6.61,0,0,0-2.51-4.8,8.56,8.56,0,0,0-5.35-1.63A7,7,0,0,0,74,114q-2,4.8-2,15.16c0,6.41.84,11.25,2.52,14.55s3.93,4.94,6.75,4.94a11.58,11.58,0,0,0,8.55-3.53q4.41-4.49,4.41-13.17h.72q0,8.45-4.12,13.34t-11.3,4.9q-5.83,0-10.85-5a20.47,20.47,0,0,1-6-15.17q0-9.89,6.09-16.23,5.3-5.46,11-5.47A17.8,17.8,0,0,1,87,109.8a10,10,0,0,1,6.19,6.82,12,12,0,0,1,.45,3,5.2,5.2,0,0,1-2.72,4.71,4.08,4.08,0,0,1-2.35.67,4.15,4.15,0,0,1-3-1.28,5.15,5.15,0,0,1-.1-6.75A4.31,4.31,0,0,1,88.75,115.66Z"/><path d="M115,125.43v19.3a7.26,7.26,0,0,0,.27,2.51,2,2,0,0,0,.85.58,9.89,9.89,0,0,0,2.42.48,28.29,28.29,0,0,0,3.1.19v.86H97.72v-.86c1.73,0,3.3-.06,4.71-.19a14.19,14.19,0,0,0,3.63-.77c.36-.33.54-1.26.54-2.8V94.28c0-.84,0-1.55,0-2.13a2.43,2.43,0,0,0-.4-1.35A2.7,2.7,0,0,0,105,89.65a31.47,31.47,0,0,0-7.17-.49V88.3L115,86.67v34a20.33,20.33,0,0,1,2.6-7.39c1.74-2.94,3.8-4.55,6.19-4.8a12.85,12.85,0,0,0,1.57-.1c.56-.06,1-.09,1.21-.09q6.27,0,9.41,3.65a11,11,0,0,1,2.51,7.32v25.5a7.19,7.19,0,0,0,.27,2.5,2,2,0,0,0,.9.58,11,11,0,0,0,2.6.48,36.41,36.41,0,0,0,3.76.19v.86H122.91v-.86a32.59,32.59,0,0,0,3.32-.19,12.55,12.55,0,0,0,3.32-.77c.36-.33.53-1.26.53-2.8v-26a17.64,17.64,0,0,0-.8-6.17,4.69,4.69,0,0,0-4.75-3.19c-2.51,0-4.67,1.77-6.46,5.31A33.36,33.36,0,0,0,115,125.43Z"/><ellipse cx="189.28" cy="121.33" rx="41.09" ry="44"/><ellipse class="cls-3" cx="189.28" cy="121.33" rx="11.21" ry="12"/></g></g></svg>