<svg xmlns="http://www.w3.org/2000/svg" viewBox="0 0 144 144"><defs><style>.cls-1{fill:#d8c013;}.cls-2{fill:#141451;}.cls-3{fill:#0a0a8c;}.cls-4{fill:none;stroke:#141451;stroke-linecap:round;stroke-linejoin:round;stroke-width:0;}</style></defs><title>Asset 1</title><g id="Layer_2" data-name="Layer 2"><g id="Layer_1-2" data-name="Layer 1"><path class="cls-1" d="M138.35,44,137,49.75S88.94,63,92.6,62.57,88,86.85,88,86.85l-.47-.47A18.56,18.56,0,1,1,57.28,85.2l-.9.9S48.13,61.37,51.8,61.83,7.37,49,7.37,49L6,43.15A72,72,0,1,0,138.35,44ZM27.63,88.46l-4.91-7.72,15,4.74a17,17,0,0,1,10.67,9.9Zm20.76-2.18-26.87-9-6.37-10,19.41,6.15A22.07,22.07,0,0,1,48.39,86.28Zm.06-10.53L15.67,64.08,8.09,51.62l23.68,8A27.16,27.16,0,0,1,48.45,75.75Zm67,13.46L94.72,96.12a17,17,0,0,1,10.66-9.9l15-4.74Zm6-11.15L94.57,87a22.07,22.07,0,0,1,13.84-12.84L127.82,68Zm7-13.24L95.68,76.49a27.13,27.13,0,0,1,16.67-16.1l23.68-8Z"/><path class="cls-1" d="M60,66.41c-8.15,5.58-2.23,16-1.45,17.27a18.54,18.54,0,0,1,27.33.55c1.1-1.88,6.28-11.71-1.56-17.08-8.71-6,7.78-10.53,7.78-10.53s2.75-1.37,46.14-12.79A72,72,0,0,0,6.06,43.07c43.45,11.43,46.2,12.81,46.2,12.81S68.74,60.46,60,66.41Z"/><path class="cls-2" d="M72,78.68A17.82,17.82,0,1,0,89.81,96.49,17.83,17.83,0,0,0,72,78.68Zm0,30.43A12.62,12.62,0,1,1,84.62,96.49,12.62,12.62,0,0,1,72,109.11Z"/><path class="cls-2" d="M85.92,84.23a18.54,18.54,0,0,0-27.33-.55l.08.13L57.28,85.2a18.56,18.56,0,1,0,30.27,1.18l-1.82-1.82Zm4.27,12.26A18.19,18.19,0,1,1,72,78.31,18.21,18.21,0,0,1,90.19,96.49Z"/><path class="cls-2" d="M72,78.31A18.19,18.19,0,1,0,90.19,96.49,18.21,18.21,0,0,0,72,78.31Zm0,36A17.82,17.82,0,1,1,89.81,96.49,17.83,17.83,0,0,1,72,114.31Z"/><path class="cls-3" d="M72,84.62A11.88,11.88,0,1,0,83.88,96.49,11.89,11.89,0,0,0,72,84.62Zm4.24,17.7L72,99.25l-4.24,3.07,1.62-5-4.23-3.08h5.23l1.62-5,1.62,5h5.23l-4.23,3.08Z"/><path d="M72,83.88A12.62,12.62,0,1,0,84.62,96.49,12.62,12.62,0,0,0,72,83.88Zm0,24.86A12.25,12.25,0,1,1,84.25,96.49,12.26,12.26,0,0,1,72,108.74Z"/><path d="M72,84.25A12.25,12.25,0,1,0,84.25,96.49,12.26,12.26,0,0,0,72,84.25Zm0,24.12A11.88,11.88,0,1,1,83.88,96.49,11.89,11.89,0,0,1,72,108.37Z"/><polygon class="cls-1" points="73.62 94.27 72 89.29 70.38 94.27 65.15 94.27 69.38 97.34 67.76 102.33 72 99.25 76.24 102.33 74.62 97.34 78.85 94.27 73.62 94.27"/><path class="cls-2" d="M138.4,43.79l-.12,0c0,.05.05.11.07.17Z"/><path class="cls-2" d="M84.36,67.15c7.84,5.37,2.66,15.2,1.56,17.08a17.87,17.87,0,0,1,1.63,2.15l.47.47s8.24-24.74,4.58-24.28S137,49.75,137,49.75L138.35,44c0-.06,0-.12-.07-.17C94.89,55.25,92.14,56.62,92.14,56.62S75.65,61.2,84.36,67.15Z"/><path class="cls-2" d="M85.73,84.56l1.82,1.82a17.87,17.87,0,0,0-1.63-2.15Z"/><path class="cls-2" d="M6,43.05l0,.1,0-.08Z"/><path class="cls-2" d="M51.8,61.83c-3.67-.46,4.58,24.27,4.58,24.27l.9-.9a17.2,17.2,0,0,1,1.31-1.52C57.81,82.39,51.89,72,60,66.41c8.7-5.95-7.78-10.53-7.78-10.53S49.51,54.5,6.06,43.07l0,.08L7.37,49S55.46,62.29,51.8,61.83Z"/><path class="cls-2" d="M58.59,83.68a17.2,17.2,0,0,0-1.31,1.52l1.39-1.39Z"/><line class="cls-4" x1="48.45" y1="75.75" x2="48.45" y2="75.75"/><path class="cls-2" d="M31.77,59.64l-23.68-8,7.58,12.46L48.45,75.75A27.16,27.16,0,0,0,31.77,59.64Z"/><path class="cls-2" d="M34.56,73.45,15.15,67.3l6.37,10,26.87,9A22.07,22.07,0,0,0,34.56,73.45Z"/><line class="cls-4" x1="48.39" y1="86.28" x2="48.39" y2="86.28"/><path class="cls-2" d="M37.68,85.48l-15-4.74,4.91,7.72,20.72,6.92A17,17,0,0,0,37.68,85.48Z"/><path class="cls-2" d="M95.68,76.49l32.78-11.67L136,52.36l-23.68,8A27.13,27.13,0,0,0,95.68,76.49Z"/><path class="cls-2" d="M94.57,87l26.88-9,6.37-10-19.41,6.15A22.07,22.07,0,0,0,94.57,87Z"/><path class="cls-2" d="M94.72,96.12l20.72-6.91,4.91-7.73-15,4.74A17,17,0,0,0,94.72,96.12Z"/></g></g></svg>